<svg width="294" height="121" viewBox="0 0 294 121" fill="none" xmlns="http://www.w3.org/2000/svg">
<path fill-rule="evenodd" clip-rule="evenodd" d="M154.664 100.53V70.9842L123.471 57.6794L139.843 40.1722L118.387 19.2148L112.301 32.0425L112.535 19.7103L85.3438 29.2714L86.044 45.3473L90.6619 44.026L95.4633 100.75L114.635 97.6488L114.602 78.7102L154.664 100.53Z" fill="#0B0000"/>
<path fill-rule="evenodd" clip-rule="evenodd" d="M90.4609 33.3972L106.982 27.9836L107.999 46.7204L120.169 27.9102L132.056 40.3708L115.435 59.6581L149.644 74.5778V91.7364L109.9 69.8432L109.966 92.7825L99.6802 94.324L95.2956 36.9391L90.661 38.2604L90.4609 33.3972Z" fill="white"/>
<path fill-rule="evenodd" clip-rule="evenodd" d="M215.727 22.0391H197.722L197.205 25.2873H178.267L169.414 84.8744L191.02 88.618L192.204 80.0663L197.855 91.5359L201.29 84.2137L202.557 96.2339L227.047 100.987L215.727 22.0391Z" fill="#0B0000"/>
<path fill-rule="evenodd" clip-rule="evenodd" d="M202.461 27.5469H211.63L220.916 93.924L207.379 91.6484L203.778 65.3875L198.693 79.8668L191.057 61.7723H190.974L187.956 82.748L175.27 80.3072L182.822 30.6116H195.659L198.86 49.8806L202.461 27.5469Z" fill="white"/>
<path fill-rule="evenodd" clip-rule="evenodd" d="M238.655 27.4727L265.746 34.0241L267.763 45.035L269.947 35.1068L293.003 41.2546L270.864 114.679L253.876 108.788L253.742 101.429L237.438 98.9148L242.939 45.035L238.855 44.0256L238.655 27.4727Z" fill="#0B0000"/>
<path fill-rule="evenodd" clip-rule="evenodd" d="M243.473 34.3516L261.128 38.2604L267.08 69.2743L273.165 41.4719L286.602 44.7568L267.68 107.849L258.277 104.748L257.46 66.6134L252.726 96.0307L242.473 94.2506L247.074 40.8296L243.206 39.6918L243.473 34.3516Z" fill="white"/>
<path fill-rule="evenodd" clip-rule="evenodd" d="M236.054 90.4364C230.202 92.8587 223.983 92.5835 218.982 89.6472C214.347 86.9496 211.113 82.27 209.863 76.4893C207.362 64.9646 214.281 51.8066 225.284 47.1637C231.202 44.7046 237.471 44.9982 242.505 47.9528C247.09 50.6321 250.291 55.2016 251.508 60.8171C254.059 72.507 247.14 85.7934 236.054 90.4364Z" fill="#0B0000"/>
<path fill-rule="evenodd" clip-rule="evenodd" d="M247.219 61.8834C245.219 52.6343 236.249 47.9914 227.047 51.8085C218.128 55.5705 212.276 66.196 214.293 75.4451C216.36 84.9879 225.246 89.6124 234.449 85.7953C243.435 82.0517 249.286 71.3528 247.219 61.8834Z" fill="white"/>
<path fill-rule="evenodd" clip-rule="evenodd" d="M240.534 63.5117C240.351 68.6134 236.316 72.4672 231.382 72.2469C226.53 72.0267 222.796 67.8426 222.979 62.7409C223.163 57.9512 227.18 54.0974 232.115 54.3176C236.983 54.5378 240.718 58.7219 240.534 63.5117Z" fill="#0B0000"/>
<path fill-rule="evenodd" clip-rule="evenodd" d="M234.265 54.5404C231.314 54.412 228.846 56.6508 228.73 59.532C228.63 62.4132 230.93 64.8723 233.881 65.0007C236.832 65.1292 239.299 62.8903 239.416 60.0091C239.516 57.128 237.215 54.6689 234.265 54.5404Z" fill="white"/>
<path fill-rule="evenodd" clip-rule="evenodd" d="M86.6894 96.8613C80.7044 99.6507 74.2192 99.6507 68.901 96.8429C63.983 94.237 60.4319 89.5391 58.9148 83.5749C55.8807 71.7015 62.5659 57.6993 73.8358 52.3591C79.8875 49.5513 86.4227 49.5513 91.7742 52.3958C96.6422 54.965 100.143 59.5712 101.627 65.3519C104.728 77.3904 98.026 91.5394 86.6894 96.8613Z" fill="#0B0000"/>
<path fill-rule="evenodd" clip-rule="evenodd" d="M97.3424 66.0828C94.8751 56.4667 85.3057 52.0256 75.803 56.4667C66.5837 60.8343 60.8654 72.2489 63.3328 81.865C65.8668 91.7932 75.3695 96.2159 84.8722 91.7932C94.1582 87.4255 99.8765 75.9192 97.3424 66.0828Z" fill="white"/>
<path fill-rule="evenodd" clip-rule="evenodd" d="M90.9105 67.9169C90.9105 73.0186 87.026 77.0375 82.0913 77.0375C77.2399 77.0375 73.3555 73.0186 73.3555 67.9169C73.3555 63.1272 77.2399 59.0898 82.1746 59.0898C87.026 59.0898 90.9105 63.1088 90.9105 67.9169Z" fill="#0B0000"/>
<path fill-rule="evenodd" clip-rule="evenodd" d="M84.3242 59.2188C81.3733 59.2188 78.9727 61.5677 78.9727 64.4489C78.9727 67.3301 81.3567 69.6791 84.3242 69.6791C87.275 69.6791 89.6757 67.3301 89.6757 64.4489C89.6757 61.5677 87.275 59.2188 84.3242 59.2188Z" fill="white"/>
<path fill-rule="evenodd" clip-rule="evenodd" d="M53.6653 79.1326C66.5356 68.7273 72.6707 53.0001 68.0193 41.2002C65.9854 36.0434 62.4178 31.7859 58.0498 29.1066C54.9823 26.8677 51.3313 25.4546 47.4968 24.9775C38.0942 23.1607 26.8076 25.0325 15.7045 30.226C11.62 32.1346 7.80222 34.3367 4.36791 36.7408L0 39.7687L2.61741 44.6502L10.7531 59.7902C10.7531 59.7902 13.2538 64.4514 13.2704 64.4331L17.6884 62.0657L18.3052 61.7354L38.5276 111.449L40.4782 116.221L45.0128 114.624L55.9659 110.77L60.7673 109.082L59.5003 103.723L53.6653 79.1326Z" fill="black"/>
<path fill-rule="evenodd" clip-rule="evenodd" d="M63.1328 43.5305C61.5157 39.4382 58.7316 36.2267 55.0972 33.9694C52.4631 32.0425 49.4123 31.0883 46.5615 30.7396C38.4592 29.1797 28.373 30.6478 17.7533 35.6027C13.9689 37.3645 10.4345 39.3831 7.18359 41.6587L15.3192 56.7986C17.4032 55.6792 19.6538 54.4863 20.8708 53.7706L43.3606 109.027L54.3137 105.173L47.5618 76.5815C60.5154 67.8278 67.0506 53.4587 63.1328 43.5305Z" fill="white"/>
<path fill-rule="evenodd" clip-rule="evenodd" d="M178.184 58.0641L170.482 50.4299L174.266 46.0072L177.667 42.0249L174.533 37.7857C168.415 29.4909 158.628 26.1693 148.359 28.9036C134.071 32.684 126.019 46.2274 129.203 61.0737C130.487 67.0563 133.888 72.1763 138.806 75.4979C144.675 79.4802 152.06 80.5629 159.579 78.5626C167.514 76.4522 173.349 72.9104 178.467 67.093L182.569 62.4317L178.184 58.0641Z" fill="#0B0000"/>
<path fill-rule="evenodd" clip-rule="evenodd" d="M166.346 54.4499C164.413 56.964 162.195 59.2579 158.261 60.304C156.944 60.6526 155.16 60.983 154.026 60.7628L170.581 41.3653C165.913 35.034 158.244 32.0978 149.558 34.4101C138.755 37.2729 131.453 47.1827 134.154 59.8085C136.321 69.9568 146.524 76.178 158.361 73.0399C165.53 71.1313 170.514 68.085 174.982 63.0016L166.346 54.4499Z" fill="white"/>
<path fill-rule="evenodd" clip-rule="evenodd" d="M140.488 25.7104L160.761 0L171.981 18.4432L146.357 33.6015L140.488 25.7104Z" fill="#0B0000"/>
<path fill-rule="evenodd" clip-rule="evenodd" d="M159.895 8.18359L165.83 17.0657L148.875 26.3148L147.691 24.3512L159.895 8.18359Z" fill="white"/>
<path fill-rule="evenodd" clip-rule="evenodd" d="M147.328 54.7429C146.111 52.3022 146.344 49.1641 148.161 46.9802C149.912 44.8698 152.579 44.2642 154.863 45.2369L147.328 54.7429ZM148.161 46.9802C146.361 49.1641 146.111 52.3022 147.328 54.7429L154.863 45.2369C152.579 44.2642 149.895 44.8698 148.161 46.9802ZM159.048 43.8054C155.18 39.9333 149.212 40.2453 145.694 44.5028C142.176 48.7603 142.46 55.3301 146.327 59.2023C146.644 59.5326 146.994 59.8079 147.344 60.0648L159.731 44.5395C159.498 44.2826 159.281 44.044 159.048 43.8054ZM147.328 54.7429C146.111 52.3022 146.344 49.1641 148.161 46.9802C149.912 44.8698 152.579 44.2642 154.863 45.2369L147.328 54.7429Z" fill="black"/>
<path fill-rule="evenodd" clip-rule="evenodd" d="M54.6178 52.9822C53.6508 47.1281 46.7322 43.8432 39.7969 47.9356L41.5307 54.6522L44.2648 64.562L45.5152 69.0764C50.7166 65.4612 55.9515 61.0936 54.6178 52.9822ZM47.7325 61.9377C46.9822 59.2217 45.3651 53.3676 45.3651 53.3676C45.3818 53.4043 45.0317 52.1014 44.6649 50.6516C46.132 50.358 47.5324 50.5048 48.6994 51.1287C49.3496 51.4774 50.4666 52.2665 50.7 53.7713C51.2501 57.1297 50.1998 59.5337 47.7325 61.9377Z" fill="black"/>
<path fill-rule="evenodd" clip-rule="evenodd" d="M57.5859 119.801C57.6026 119.856 57.6193 119.893 57.6359 119.948C57.6359 119.966 57.6526 119.984 57.6526 120.003C57.636 119.929 57.6026 119.874 57.5859 119.801Z" fill="black"/>
<path fill-rule="evenodd" clip-rule="evenodd" d="M275.742 108.02H280.727V108.827H278.66V114.791H277.809V108.827H275.742V108.02Z" fill="black"/>
<path fill-rule="evenodd" clip-rule="evenodd" d="M281.465 114.791V108.02H282.665L284.432 113.745L286.183 108.02H287.367V114.791H286.583V110.791C286.583 110.644 286.583 110.424 286.6 110.112C286.6 109.8 286.6 109.451 286.6 109.084L284.849 114.791H284.032L282.265 109.084V109.286C282.265 109.451 282.265 109.708 282.282 110.038C282.282 110.369 282.298 110.625 282.298 110.791V114.791H281.465Z" fill="black"/>
</svg>
